<?xml version="1.0" encoding="UTF-8"?>
<svg contentScriptType="application/ecmascript" contentStyleType="text/css" height="391px" preserveAspectRatio="none" style="width:1013px;height:391px;" version="1.1" viewBox="0 0 1013 391" width="1013px" xmlns="http://www.w3.org/2000/svg" xmlns:xlink="http://www.w3.org/1999/xlink" zoomAndPan="magnify"><defs><filter height="300%" id="f1q43wd8wokpd5" width="300%" x="-1" y="-1"><feGaussianBlur result="blurOut" stdDeviation="2.0"/><feColorMatrix in="blurOut" result="blurOut2" type="matrix" values="0 0 0 0 0 0 0 0 0 0 0 0 0 0 0 0 0 0 .4 0"/><feOffset dx="4.0" dy="4.0" in="blurOut2" result="blurOut3"/><feBlend in="SourceGraphic" in2="blurOut3" mode="normal"/></filter></defs><g><!--class Minitest::Test--><rect fill="#F8F8F8" filter="url(#f1q43wd8wokpd5)" height="48" id="Minitest::Test" style="stroke: #383838; stroke-width: 1.5;" width="116" x="437" y="8"/><ellipse cx="452" cy="24" fill="#C2C2C2" rx="11" ry="11" style="stroke: #383838; stroke-width: 1.0;"/><path d="M455.3906,25.9844 Q454.9688,30.9688 451.6563,30.9688 Q449.7031,30.9688 448.6563,28.9688 Q447.7813,27.2969 447.7813,24.3594 Q447.7813,21.3438 448.75,19.5781 Q449.75,17.7031 451.6563,17.7031 Q454.6875,17.7031 455.3125,22.1406 L453.2344,22.1406 Q452.875,19.6719 451.6563,19.6719 Q449.9219,19.6719 449.9219,24.3594 Q449.9219,29 451.6719,29 Q453.1094,29 453.2656,25.9844 L455.3906,25.9844 Z "/><text fill="#000000" font-family="sans-serif" font-size="12" lengthAdjust="spacingAndGlyphs" textLength="84" x="466" y="28.5586">Minitest::Test</text><line style="stroke: #383838; stroke-width: 1.5;" x1="438" x2="552" y1="40" y2="40"/><line style="stroke: #383838; stroke-width: 1.5;" x1="438" x2="552" y1="48" y2="48"/><!--class ActiveSupport::TestCase--><rect fill="#F8F8F8" filter="url(#f1q43wd8wokpd5)" height="48" id="ActiveSupport::TestCase" style="stroke: #383838; stroke-width: 1.5;" width="170" x="410" y="116"/><ellipse cx="425" cy="132" fill="#C2C2C2" rx="11" ry="11" style="stroke: #383838; stroke-width: 1.0;"/><path d="M428.3906,133.9844 Q427.9688,138.9688 424.6563,138.9688 Q422.7031,138.9688 421.6563,136.9688 Q420.7813,135.2969 420.7813,132.3594 Q420.7813,129.3438 421.75,127.5781 Q422.75,125.7031 424.6563,125.7031 Q427.6875,125.7031 428.3125,130.1406 L426.2344,130.1406 Q425.875,127.6719 424.6563,127.6719 Q422.9219,127.6719 422.9219,132.3594 Q422.9219,137 424.6719,137 Q426.1094,137 426.2656,133.9844 L428.3906,133.9844 Z "/><text fill="#000000" font-family="sans-serif" font-size="12" lengthAdjust="spacingAndGlyphs" textLength="138" x="439" y="136.5586">ActiveSupport::TestCase</text><line style="stroke: #383838; stroke-width: 1.5;" x1="411" x2="579" y1="148" y2="148"/><line style="stroke: #383838; stroke-width: 1.5;" x1="411" x2="579" y1="156" y2="156"/><!--class ActionMailer::TestCase--><rect fill="#F8F8F8" filter="url(#f1q43wd8wokpd5)" height="48" id="ActionMailer::TestCase" style="stroke: #383838; stroke-width: 1.5;" width="164" x="6" y="224"/><ellipse cx="21" cy="240" fill="#C2C2C2" rx="11" ry="11" style="stroke: #383838; stroke-width: 1.0;"/><path d="M24.3906,241.9844 Q23.9688,246.9688 20.6563,246.9688 Q18.7031,246.9688 17.6563,244.9688 Q16.7813,243.2969 16.7813,240.3594 Q16.7813,237.3438 17.75,235.5781 Q18.75,233.7031 20.6563,233.7031 Q23.6875,233.7031 24.3125,238.1406 L22.2344,238.1406 Q21.875,235.6719 20.6563,235.6719 Q18.9219,235.6719 18.9219,240.3594 Q18.9219,245 20.6719,245 Q22.1094,245 22.2656,241.9844 L24.3906,241.9844 Z "/><text fill="#000000" font-family="sans-serif" font-size="12" lengthAdjust="spacingAndGlyphs" textLength="132" x="35" y="244.5586">ActionMailer::TestCase</text><line style="stroke: #383838; stroke-width: 1.5;" x1="7" x2="169" y1="256" y2="256"/><line style="stroke: #383838; stroke-width: 1.5;" x1="7" x2="169" y1="264" y2="264"/><!--class ActiveJob::TestCase--><rect fill="#F8F8F8" filter="url(#f1q43wd8wokpd5)" height="48" id="ActiveJob::TestCase" style="stroke: #383838; stroke-width: 1.5;" width="146" x="205" y="224"/><ellipse cx="220" cy="240" fill="#C2C2C2" rx="11" ry="11" style="stroke: #383838; stroke-width: 1.0;"/><path d="M223.3906,241.9844 Q222.9688,246.9688 219.6563,246.9688 Q217.7031,246.9688 216.6563,244.9688 Q215.7813,243.2969 215.7813,240.3594 Q215.7813,237.3438 216.75,235.5781 Q217.75,233.7031 219.6563,233.7031 Q222.6875,233.7031 223.3125,238.1406 L221.2344,238.1406 Q220.875,235.6719 219.6563,235.6719 Q217.9219,235.6719 217.9219,240.3594 Q217.9219,245 219.6719,245 Q221.1094,245 221.2656,241.9844 L223.3906,241.9844 Z "/><text fill="#000000" font-family="sans-serif" font-size="12" lengthAdjust="spacingAndGlyphs" textLength="114" x="234" y="244.5586">ActiveJob::TestCase</text><line style="stroke: #383838; stroke-width: 1.5;" x1="206" x2="350" y1="256" y2="256"/><line style="stroke: #383838; stroke-width: 1.5;" x1="206" x2="350" y1="264" y2="264"/><!--class ActionDispatch::IntegrationTest--><rect fill="#F8F8F8" filter="url(#f1q43wd8wokpd5)" height="48" id="ActionDispatch::IntegrationTest" style="stroke: #383838; stroke-width: 1.5;" width="218" x="386" y="224"/><ellipse cx="401" cy="240" fill="#C2C2C2" rx="11" ry="11" style="stroke: #383838; stroke-width: 1.0;"/><path d="M404.3906,241.9844 Q403.9688,246.9688 400.6563,246.9688 Q398.7031,246.9688 397.6563,244.9688 Q396.7813,243.2969 396.7813,240.3594 Q396.7813,237.3438 397.75,235.5781 Q398.75,233.7031 400.6563,233.7031 Q403.6875,233.7031 404.3125,238.1406 L402.2344,238.1406 Q401.875,235.6719 400.6563,235.6719 Q398.9219,235.6719 398.9219,240.3594 Q398.9219,245 400.6719,245 Q402.1094,245 402.2656,241.9844 L404.3906,241.9844 Z "/><text fill="#000000" font-family="sans-serif" font-size="12" lengthAdjust="spacingAndGlyphs" textLength="186" x="415" y="244.5586">ActionDispatch::IntegrationTest</text><line style="stroke: #383838; stroke-width: 1.5;" x1="387" x2="603" y1="256" y2="256"/><line style="stroke: #383838; stroke-width: 1.5;" x1="387" x2="603" y1="264" y2="264"/><!--class ActionDispatch::SystemTestCase--><rect fill="#F8F8F8" filter="url(#f1q43wd8wokpd5)" height="48" id="ActionDispatch::SystemTestCase" style="stroke: #383838; stroke-width: 1.5;" width="212" x="389" y="332"/><ellipse cx="404" cy="348" fill="#C2C2C2" rx="11" ry="11" style="stroke: #383838; stroke-width: 1.0;"/><path d="M407.3906,349.9844 Q406.9688,354.9688 403.6563,354.9688 Q401.7031,354.9688 400.6563,352.9688 Q399.7813,351.2969 399.7813,348.3594 Q399.7813,345.3438 400.75,343.5781 Q401.75,341.7031 403.6563,341.7031 Q406.6875,341.7031 407.3125,346.1406 L405.2344,346.1406 Q404.875,343.6719 403.6563,343.6719 Q401.9219,343.6719 401.9219,348.3594 Q401.9219,353 403.6719,353 Q405.1094,353 405.2656,349.9844 L407.3906,349.9844 Z "/><text fill="#000000" font-family="sans-serif" font-size="12" lengthAdjust="spacingAndGlyphs" textLength="180" x="418" y="352.5586">ActionDispatch::SystemTestCase</text><line style="stroke: #383838; stroke-width: 1.5;" x1="390" x2="600" y1="364" y2="364"/><line style="stroke: #383838; stroke-width: 1.5;" x1="390" x2="600" y1="372" y2="372"/><!--class ActionCable::TestCase--><rect fill="#F8F8F8" filter="url(#f1q43wd8wokpd5)" height="48" id="ActionCable::TestCase" style="stroke: #383838; stroke-width: 1.5;" width="158" x="639" y="224"/><ellipse cx="654" cy="240" fill="#C2C2C2" rx="11" ry="11" style="stroke: #383838; stroke-width: 1.0;"/><path d="M657.3906,241.9844 Q656.9688,246.9688 653.6563,246.9688 Q651.7031,246.9688 650.6563,244.9688 Q649.7813,243.2969 649.7813,240.3594 Q649.7813,237.3438 650.75,235.5781 Q651.75,233.7031 653.6563,233.7031 Q656.6875,233.7031 657.3125,238.1406 L655.2344,238.1406 Q654.875,235.6719 653.6563,235.6719 Q651.9219,235.6719 651.9219,240.3594 Q651.9219,245 653.6719,245 Q655.1094,245 655.2656,241.9844 L657.3906,241.9844 Z "/><text fill="#000000" font-family="sans-serif" font-size="12" lengthAdjust="spacingAndGlyphs" textLength="126" x="668" y="244.5586">ActionCable::TestCase</text><line style="stroke: #383838; stroke-width: 1.5;" x1="640" x2="796" y1="256" y2="256"/><line style="stroke: #383838; stroke-width: 1.5;" x1="640" x2="796" y1="264" y2="264"/><!--class ActionMailbox::TestCase--><rect fill="#F8F8F8" filter="url(#f1q43wd8wokpd5)" height="48" id="ActionMailbox::TestCase" style="stroke: #383838; stroke-width: 1.5;" width="170" x="832" y="224"/><ellipse cx="847" cy="240" fill="#C2C2C2" rx="11" ry="11" style="stroke: #383838; stroke-width: 1.0;"/><path d="M850.3906,241.9844 Q849.9688,246.9688 846.6563,246.9688 Q844.7031,246.9688 843.6563,244.9688 Q842.7813,243.2969 842.7813,240.3594 Q842.7813,237.3438 843.75,235.5781 Q844.75,233.7031 846.6563,233.7031 Q849.6875,233.7031 850.3125,238.1406 L848.2344,238.1406 Q847.875,235.6719 846.6563,235.6719 Q844.9219,235.6719 844.9219,240.3594 Q844.9219,245 846.6719,245 Q848.1094,245 848.2656,241.9844 L850.3906,241.9844 Z "/><text fill="#000000" font-family="sans-serif" font-size="12" lengthAdjust="spacingAndGlyphs" textLength="138" x="861" y="244.5586">ActionMailbox::TestCase</text><line style="stroke: #383838; stroke-width: 1.5;" x1="833" x2="1001" y1="256" y2="256"/><line style="stroke: #383838; stroke-width: 1.5;" x1="833" x2="1001" y1="264" y2="264"/><!--link Minitest::Test to ActiveSupport::TestCase--><path d="M495,76.024 C495,89.579 495,104.038 495,115.678 " fill="none" id="Minitest::Test-ActiveSupport::TestCase" style="stroke: #383838; stroke-width: 1.0;"/><polygon fill="none" points="488,76,495,56,502,76,488,76" style="stroke: #383838; stroke-width: 1.0;"/><!--link ActiveSupport::TestCase to ActionMailer::TestCase--><path d="M390.016,168.342 C321.534,186.178 233.434,209.123 170.082,225.622 " fill="none" id="ActiveSupport::TestCase-ActionMailer::TestCase" style="stroke: #383838; stroke-width: 1.0;"/><polygon fill="none" points="388.561,161.488,409.679,163.221,392.089,175.036,388.561,161.488" style="stroke: #383838; stroke-width: 1.0;"/><!--link ActiveSupport::TestCase to ActiveJob::TestCase--><path d="M429.547,172.972 C395.996,189.361 355.891,208.952 325.368,223.862 " fill="none" id="ActiveSupport::TestCase-ActiveJob::TestCase" style="stroke: #383838; stroke-width: 1.0;"/><polygon fill="none" points="426.871,166.489,447.914,164,433.016,179.068,426.871,166.489" style="stroke: #383838; stroke-width: 1.0;"/><!--link ActiveSupport::TestCase to ActionDispatch::IntegrationTest--><path d="M495,184.024 C495,197.579 495,212.038 495,223.678 " fill="none" id="ActiveSupport::TestCase-ActionDispatch::IntegrationTest" style="stroke: #383838; stroke-width: 1.0;"/><polygon fill="none" points="488,184,495,164,502,184,488,184" style="stroke: #383838; stroke-width: 1.0;"/><!--link ActionDispatch::IntegrationTest to ActionDispatch::SystemTestCase--><path d="M495,292.0236 C495,305.5792 495,320.0381 495,331.6784 " fill="none" id="ActionDispatch::IntegrationTest-ActionDispatch::SystemTestCase" style="stroke: #383838; stroke-width: 1.0;"/><polygon fill="none" points="488,292.0005,495,272,502,292.0004,488,292.0005" style="stroke: #383838; stroke-width: 1.0;"/><!--link ActiveSupport::TestCase to ActionCable::TestCase--><path d="M561.782,172.744 C596.357,189.179 637.809,208.882 669.322,223.862 " fill="none" id="ActiveSupport::TestCase-ActionCable::TestCase" style="stroke: #383838; stroke-width: 1.0;"/><polygon fill="none" points="558.446,178.909,543.388,164,564.456,166.264,558.446,178.909" style="stroke: #383838; stroke-width: 1.0;"/><!--link ActiveSupport::TestCase to ActionMailbox::TestCase--><path d="M599.712,167.302 C671.311,185.287 765.01,208.822 831.987,225.646 " fill="none" id="ActiveSupport::TestCase-ActionMailbox::TestCase" style="stroke: #383838; stroke-width: 1.0;"/><polygon fill="none" points="597.836,174.048,580.144,162.387,601.247,160.47,597.836,174.048" style="stroke: #383838; stroke-width: 1.0;"/><!--
@startuml
skinparam monochrome true
scale max 1024 width
Minitest::Test <|- - ActiveSupport::TestCase
ActiveSupport::TestCase <|- - ActionMailer::TestCase
ActiveSupport::TestCase <|- - ActiveJob::TestCase
ActiveSupport::TestCase <|- - ActionDispatch::IntegrationTest
ActionDispatch::IntegrationTest <|- - ActionDispatch::SystemTestCase
ActiveSupport::TestCase <|- - ActionCable::TestCase
ActiveSupport::TestCase <|- - ActionMailbox::TestCase
@enduml
--></g></svg>